<svg width="108" height="43" viewBox="0 0 108 43" fill="none" xmlns="http://www.w3.org/2000/svg">
<path fill-rule="evenodd" clip-rule="evenodd" d="M30.3308 26.8753C29.0881 33.9209 22.8213 39.2798 15.2774 39.2798C6.83991 39.2798 0 32.5762 0 24.3069C0 16.0376 6.83991 9.33398 15.2774 9.33398C21.5214 9.33398 26.8905 13.0052 29.26 18.2654C28.9254 18.4676 28.0414 18.9679 26.7867 19.475C25.2657 20.0897 23.5859 20.3313 23.5859 20.3313C23.5859 20.3313 24.2057 21.6266 24.4031 23.3828C24.5002 24.247 24.3809 25.1696 24.2345 25.8839C24.3302 25.3648 24.3801 24.8301 24.3801 24.2839C24.3801 19.3493 20.3046 15.3489 15.2772 15.3489C10.2499 15.3489 6.17437 19.3493 6.17437 24.2839C6.17437 29.2186 10.2499 33.219 15.2772 33.219C19.2883 33.219 22.6935 30.6725 23.9062 27.1367H30.2598C30.285 27.0503 30.3086 26.9631 30.3308 26.8753Z" fill="#6F93D7"/>
<path fill-rule="evenodd" clip-rule="evenodd" d="M29.3564 18.5185C26.8946 13.0369 21.4085 9.25948 15.0874 9.34588C11.7648 9.39129 8.702 10.4976 6.20824 12.3425C7.36121 14.084 8.84199 15.6659 10.5039 16.9966C11.8652 16.1507 13.4615 15.6539 15.1735 15.6305C18.8821 15.5798 22.1084 17.7647 23.6069 20.9548C25.769 20.5547 27.7299 19.717 29.3564 18.5185Z" fill="#0E3E98"/>
<path fill-rule="evenodd" clip-rule="evenodd" d="M23.88 20.8773C23.0908 20.997 22.2783 21.0637 21.4484 21.0726C16.9094 21.1209 12.8545 19.4276 10.2564 16.7605C11.6807 15.8717 13.3528 15.3516 15.1456 15.3325C18.9898 15.2916 22.3283 17.565 23.88 20.8773Z" fill="#EDBC5B"/>
<path fill-rule="evenodd" clip-rule="evenodd" d="M25.9142 13.5121L25.9152 13.5116C23.5647 11.344 20.9948 10.1898 19.3549 9.82643C19.2595 9.80532 19.1605 9.78269 19.0574 9.75911C17.8553 9.4843 16.0908 9.08094 13.0599 9.45406C13.6956 10.7193 16.0353 14.0608 19.9104 14.4127C23.3108 14.7215 25.4534 13.7262 25.9142 13.5121Z" fill="#15E8C2"/>
<path d="M24.2855 22H31.959V28L23.959 27.7565L24.2855 22Z" fill="white"/>
<path d="M38.3686 33.216C37.0886 33.216 35.9366 32.936 34.9126 32.376C33.8886 31.8 33.0806 30.992 32.4886 29.952C31.9126 28.912 31.6246 27.712 31.6246 26.352C31.6246 24.992 31.9206 23.792 32.5126 22.752C33.1206 21.712 33.9446 20.912 34.9846 20.352C36.0246 19.776 37.1846 19.488 38.4646 19.488C39.7446 19.488 40.9046 19.776 41.9446 20.352C42.9846 20.912 43.8006 21.712 44.3926 22.752C45.0006 23.792 45.3046 24.992 45.3046 26.352C45.3046 27.712 44.9926 28.912 44.3686 29.952C43.7606 30.992 42.9286 31.8 41.8726 32.376C40.8326 32.936 39.6646 33.216 38.3686 33.216ZM38.3686 30.288C38.9766 30.288 39.5446 30.144 40.0726 29.856C40.6166 29.552 41.0486 29.104 41.3686 28.512C41.6886 27.92 41.8486 27.2 41.8486 26.352C41.8486 25.088 41.5126 24.12 40.8406 23.448C40.1846 22.76 39.3766 22.416 38.4166 22.416C37.4566 22.416 36.6486 22.76 35.9926 23.448C35.3526 24.12 35.0326 25.088 35.0326 26.352C35.0326 27.616 35.3446 28.592 35.9686 29.28C36.6086 29.952 37.4086 30.288 38.3686 30.288ZM46.9053 26.304C46.9053 24.96 47.1693 23.768 47.6973 22.728C48.2413 21.688 48.9773 20.888 49.9053 20.328C50.8333 19.768 51.8653 19.488 53.0013 19.488C53.8653 19.488 54.6893 19.68 55.4733 20.064C56.2573 20.432 56.8813 20.928 57.3453 21.552V15.24H60.7533V33H57.3453V31.032C56.9293 31.688 56.3453 32.216 55.5933 32.616C54.8413 33.016 53.9693 33.216 52.9773 33.216C51.8573 33.216 50.8333 32.928 49.9053 32.352C48.9773 31.776 48.2413 30.968 47.6973 29.928C47.1693 28.872 46.9053 27.664 46.9053 26.304ZM57.3693 26.352C57.3693 25.536 57.2093 24.84 56.8893 24.264C56.5693 23.672 56.1373 23.224 55.5933 22.92C55.0493 22.6 54.4653 22.44 53.8413 22.44C53.2173 22.44 52.6413 22.592 52.1133 22.896C51.5853 23.2 51.1533 23.648 50.8173 24.24C50.4973 24.816 50.3373 25.504 50.3373 26.304C50.3373 27.104 50.4973 27.808 50.8173 28.416C51.1533 29.008 51.5853 29.464 52.1133 29.784C52.6573 30.104 53.2333 30.264 53.8413 30.264C54.4653 30.264 55.0493 30.112 55.5933 29.808C56.1373 29.488 56.5693 29.04 56.8893 28.464C57.2093 27.872 57.3693 27.168 57.3693 26.352ZM65.7389 18.12C65.1469 18.12 64.6509 17.936 64.2509 17.568C63.8669 17.184 63.6749 16.712 63.6749 16.152C63.6749 15.592 63.8669 15.128 64.2509 14.76C64.6509 14.376 65.1469 14.184 65.7389 14.184C66.3309 14.184 66.8189 14.376 67.2029 14.76C67.6029 15.128 67.8029 15.592 67.8029 16.152C67.8029 16.712 67.6029 17.184 67.2029 17.568C66.8189 17.936 66.3309 18.12 65.7389 18.12ZM67.3949 19.704V33H64.0349V19.704H67.3949ZM78.0826 19.512C79.6666 19.512 80.9466 20.016 81.9226 21.024C82.8986 22.016 83.3866 23.408 83.3866 25.2V33H80.0266V25.656C80.0266 24.6 79.7626 23.792 79.2346 23.232C78.7066 22.656 77.9866 22.368 77.0746 22.368C76.1466 22.368 75.4106 22.656 74.8666 23.232C74.3386 23.792 74.0746 24.6 74.0746 25.656V33H70.7146V19.704H74.0746V21.36C74.5226 20.784 75.0906 20.336 75.7786 20.016C76.4826 19.68 77.2506 19.512 78.0826 19.512ZM91.7898 19.488C92.7818 19.488 93.6538 19.688 94.4058 20.088C95.1578 20.472 95.7498 20.976 96.1818 21.6V19.704H99.5658V33.096C99.5658 34.328 99.3178 35.424 98.8218 36.384C98.3258 37.36 97.5818 38.128 96.5898 38.688C95.5978 39.264 94.3978 39.552 92.9898 39.552C91.1018 39.552 89.5498 39.112 88.3338 38.232C87.1338 37.352 86.4538 36.152 86.2938 34.632H89.6298C89.8058 35.24 90.1818 35.72 90.7578 36.072C91.3498 36.44 92.0618 36.624 92.8938 36.624C93.8698 36.624 94.6618 36.328 95.2698 35.736C95.8778 35.16 96.1818 34.28 96.1818 33.096V31.032C95.7498 31.656 95.1498 32.176 94.3818 32.592C93.6298 33.008 92.7658 33.216 91.7898 33.216C90.6698 33.216 89.6458 32.928 88.7178 32.352C87.7898 31.776 87.0538 30.968 86.5098 29.928C85.9818 28.872 85.7178 27.664 85.7178 26.304C85.7178 24.96 85.9818 23.768 86.5098 22.728C87.0538 21.688 87.7818 20.888 88.6938 20.328C89.6218 19.768 90.6538 19.488 91.7898 19.488ZM96.1818 26.352C96.1818 25.536 96.0218 24.84 95.7018 24.264C95.3818 23.672 94.9498 23.224 94.4058 22.92C93.8618 22.6 93.2778 22.44 92.6538 22.44C92.0298 22.44 91.4538 22.592 90.9258 22.896C90.3978 23.2 89.9658 23.648 89.6298 24.24C89.3098 24.816 89.1498 25.504 89.1498 26.304C89.1498 27.104 89.3098 27.808 89.6298 28.416C89.9658 29.008 90.3978 29.464 90.9258 29.784C91.4698 30.104 92.0458 30.264 92.6538 30.264C93.2778 30.264 93.8618 30.112 94.4058 29.808C94.9498 29.488 95.3818 29.04 95.7018 28.464C96.0218 27.872 96.1818 27.168 96.1818 26.352Z" fill="#7093D8"/>
</svg>
